<svg id="Layer_1" enable-background="new 0 0 512.178 512.178" height="512" viewBox="0 0 512.178 512.178" width="512" xmlns="http://www.w3.org/2000/svg"><g><path clip-rule="evenodd" d="m115.762 253.02h47.318v239.297h-47.318z" fill="#ffbebc" fill-rule="evenodd" transform="matrix(.707 -.707 .707 .707 -222.681 207.738)"/><g fill="#020288"><path d="m242.505 235.318c7.755 0 15.511-2.952 21.415-8.855 11.748-11.274 11.748-31.556 0-42.829-11.807-11.807-31.02-11.808-42.829 0-11.749 11.273-11.748 31.555 0 42.829 5.904 5.904 13.658 8.855 21.414 8.855zm-7.272-37.542c3.828-3.99 10.716-3.99 14.544 0 6.465 6.338 1.779 17.648-7.273 17.557-9.05.092-13.738-11.222-7.271-17.557z"/><path d="m311.634 238.419-137.154 36.751c-5.334 1.43-8.5 6.913-7.071 12.247 1.41 5.38 7.057 8.507 12.248 7.071l137.154-36.751c12.68-3.944 7.761-22.249-5.177-19.318z"/><path d="m248.785 297.574c-8.089 0-15.695 3.15-21.415 8.87-11.747 11.274-11.748 31.557 0 42.829 11.271 11.748 31.557 11.749 42.828 0 11.75-11.272 11.748-31.556 0-42.829-5.718-5.719-13.324-8.87-21.413-8.87zm7.272 37.557c-3.828 3.991-10.716 3.99-14.544 0-9.277-10.012 4.544-23.819 14.544-14.544 3.99 3.828 3.991 10.716 0 14.544z"/><path d="m504.321 7.748c-7.187-7.186-21.772-12.985-50.447.203-32.768 14.521-74.004 53.175-94.252 85.62l-110.042-1.367c-7.67-.627-15.15 2.13-20.598 7.577l-221.369 221.336c-10.15 9.737-10.151 27.261 0 36.998l146.365 146.343c10.201 10.199 26.798 10.199 36.999 0l221.37-221.337c4.914-4.912 7.685-11.767 7.602-18.812l-1.391-111.936c43.166-25.134 118.05-112.692 85.763-144.625zm-106.116 261.231-221.37 221.337c-2.402 2.402-6.313 2.402-8.716 0l-146.366-146.344c-2.39-2.293-2.389-6.418 0-8.711l221.37-221.337c1.307-1.312 3.143-1.958 4.973-1.773.284.027.57.044.856.047l99.753 1.239c-2.946 6.516-5.08 12.737-6.307 18.506-23.103 5.592-31.363 35.373-14.349 52.077 11.558 12.045 32.357 12.047 43.915 0 12.107-12.107 12.107-31.809 0-43.916-2.767-2.767-5.964-4.947-9.441-6.479 1.561-5.96 4.427-12.717 8.377-19.913l21.222.264c3.288.039 5.993 2.741 6.03 6.035l1.796 144.541c.021 1.71-.598 3.282-1.743 4.427zm-56.014-114.733c4.114-4.288 11.517-4.288 15.63 0 4.31 4.31 4.31 11.321 0 15.631-4.114 4.288-11.517 4.288-15.63 0-4.309-4.31-4.309-11.321 0-15.631zm76.066-25.954-.106-8.518c-.159-14.058-11.729-25.63-25.787-25.796l-8.623-.107c6.775-9.163 14.811-18.507 23.734-27.43 18.067-18.068 37.514-32.387 54.757-40.319 15.225-7.003 25.006-7.17 27.946-4.23s2.772 12.722-4.231 27.946c-7.932 17.243-22.25 36.689-40.318 54.757-8.838 8.837-18.115 16.859-27.372 23.697z"/></g></g></svg>